<svg xmlns="http://www.w3.org/2000/svg" width="682.667" height="682.667" preserveAspectRatio="xMidYMid meet" version="1.0" viewBox="0 0 512 512"><metadata>Created by potrace 1.11, written by Peter Selinger 2001-2013</metadata><g fill="#000" stroke="none"><path d="M0 2560 l0 -2560 2560 0 2560 0 0 2560 0 2560 -2560 0 -2560 0 0 -2560z m4108 2122 c284 -87 493 -298 574 -578 l23 -79 0 -1465 0 -1465 -23 -79 c-81 -281 -297 -497 -578 -578 l-79 -23 -1465 0 -1465 0 -79 23 c-282 82 -496 296 -578 579 l-23 78 0 1465 0 1465 23 78 c91 314 344 543 660 597 26 4 697 7 1492 6 l1445 -1 73 -23z" transform="translate(0.000000,512.000000) scale(0.100000,-0.100000)"/><path d="M1150 4500 c-234 -30 -429 -194 -508 -424 l-27 -81 0 -1435 0 -1435 27 -81 c66 -193 209 -336 402 -402 l81 -27 1435 0 1435 0 81 27 c193 66 336 209 402 402 l27 81 0 1435 0 1435 -27 81 c-66 193 -209 336 -402 402 l-81 27 -1395 1 c-767 1 -1420 -2 -1450 -6z m2040 -1092 l1 -413 25 50 c99 195 366 271 581 165 100 -50 168 -142 210 -285 15 -53 18 -125 21 -657 l3 -598 -201 0 -200 0 0 498 c0 521 -5 598 -43 666 -33 59 -67 79 -142 84 -85 6 -142 -21 -185 -86 -64 -97 -64 -96 -68 -654 l-3 -508 -200 0 -199 0 0 1075 0 1075 200 0 200 0 0 -412z m-1437 -191 c85 -40 134 -80 176 -144 l31 -46 0 96 0 97 205 0 205 0 0 -734 c0 -436 -4 -775 -10 -835 -19 -178 -66 -297 -157 -392 -92 -97 -216 -147 -416 -169 -158 -18 -403 5 -582 53 l-50 13 -3 186 -2 186 78 -34 c141 -61 220 -77 377 -78 126 -1 145 1 190 22 123 57 165 145 165 352 l0 115 -19 -31 c-26 -42 -88 -101 -136 -130 -81 -47 -235 -66 -356 -44 -225 42 -401 261 -450 558 -18 116 -13 344 11 462 72 355 279 548 573 536 86 -4 106 -8 170 -39z" transform="translate(0.000000,512.000000) scale(0.100000,-0.100000)"/><path d="M1618 2916 c-120 -32 -196 -154 -219 -351 -28 -237 46 -461 174 -527 57 -29 147 -29 203 0 123 63 193 247 181 472 -12 230 -98 378 -237 409 -53 12 -44 13 -102 -3z" transform="translate(0.000000,512.000000) scale(0.100000,-0.100000)"/></g></svg>