<svg xmlns="http://www.w3.org/2000/svg" width="2730.667" height="2730.667" preserveAspectRatio="xMidYMid meet" version="1.0" viewBox="0 0 2048 2048"><metadata>Created by potrace 1.11, written by Peter Selinger 2001-2013</metadata><g fill="#000" stroke="none"><path d="M19745 19870 c-3 -5 -1 -10 4 -10 6 0 11 5 11 10 0 6 -2 10 -4 10 -3 0 -8 -4 -11 -10z" transform="translate(0.000000,2048.000000) scale(0.100000,-0.100000)"/><path d="M2563 18978 c-6 -9 -5 -59 2 -143 7 -71 15 -166 19 -210 3 -44 11 -127 16 -185 5 -58 12 -132 15 -165 3 -33 9 -109 15 -170 5 -60 28 -317 50 -570 22 -253 42 -485 45 -515 3 -30 16 -185 30 -345 14 -159 28 -312 30 -340 6 -65 57 -637 95 -1080 16 -192 32 -372 35 -400 9 -108 35 -401 55 -620 19 -220 32 -367 100 -1140 16 -187 50 -574 75 -860 25 -286 49 -567 55 -625 5 -58 19 -211 30 -340 11 -129 29 -336 40 -460 11 -124 22 -252 25 -285 3 -33 10 -109 15 -170 10 -114 13 -141 30 -340 6 -66 12 -142 15 -170 2 -27 9 -106 15 -175 6 -69 12 -145 15 -170 3 -25 14 -151 25 -280 11 -129 22 -260 25 -290 3 -30 14 -158 25 -285 11 -126 38 -435 60 -685 22 -250 47 -534 55 -630 8 -96 19 -222 25 -280 5 -58 12 -134 15 -170 3 -36 19 -218 35 -405 26 -290 90 -1021 170 -1930 11 -126 22 -255 25 -285 3 -30 12 -131 20 -225 42 -487 65 -754 69 -790 3 -22 5 -43 5 -47 1 -5 7 -8 15 -8 8 0 149 -39 313 -86 1162 -333 1667 -478 2228 -639 352 -101 1324 -380 2160 -620 836 -239 1541 -443 1566 -452 45 -16 49 -15 135 9 203 59 4592 1319 4974 1429 228 66 591 169 805 230 215 61 405 118 422 126 32 13 33 16 34 71 0 31 2 66 4 77 2 11 8 83 15 160 6 77 13 158 16 180 2 22 20 220 39 440 19 220 48 553 65 740 16 187 54 624 85 970 30 347 57 655 60 685 6 66 30 338 45 505 10 122 56 634 65 735 7 84 12 140 55 635 22 253 42 484 45 513 3 28 7 76 10 105 3 28 36 412 75 852 38 440 79 901 90 1025 25 273 123 1386 150 1705 11 127 22 253 25 280 3 28 21 232 40 455 20 223 46 529 60 680 13 151 29 331 35 400 6 69 12 145 15 170 3 25 18 203 35 395 16 193 34 395 40 450 5 55 12 134 15 175 3 41 10 122 16 180 14 155 45 513 88 1005 12 127 34 385 51 575 17 190 39 449 50 575 11 127 23 253 25 280 15 148 65 734 65 758 l0 27 -7699 0 c-6147 0 -7700 -3 -7708 -12z" transform="translate(0.000000,2048.000000) scale(0.100000,-0.100000)"/></g></svg>